:SAMPLES-PER-SECOND 30
:FULLY-SPECIFIED
:DEGREES
140
root  -1.74493 41.0111 -2.2515 0.062228 -80.178 6.01653
RightUpLeg  -6.82551 -1.57563 0.540614
RightLeg  1.15653 -27.9677 2.51174
RightFoot  1.4556 0.270617 -2.32437
RightToes  -3.13006e-008 1.75238e-005 3.56266e-009
Spine  10.8378 -0.328856 -3.96098
Spine1  15.6102 0.19485 -2.49515
HEad  -19.4758 -7.96877 9.54391
LeftShoulder1  2.90719 -6.75412 -22.0301
LeftArm  -35.5366 -40.5557 -56.3862
LeftForeArm  160.39 -80.0312 -122.827
LeftHand  -0.446141 -4.58568 5.49796
RightShoulder  3.02046 7.30494 21.6624
RightArm  -44.5021 25.5801 42.966
RightForeArm  152.403 78.7907 127.408
RightHand  -0.85432 5.41534 -9.53152
LeftUpLeg  -8.60649 0.588884 4.47306
LeftLeg  -0.173159 4.80146 -0.304609
LeftFoot  6.98769 0.72773 -4.77367
LeftToes  4.78685e-008 1.46778e-008 1.34523e-009
141
root  -1.7533 40.9572 -2.40046 3.15018 -80.0664 3.20994
RightUpLeg  -7.09285 -1.51434 1.05104
RightLeg  0.985692 -28.0292 3.07274
RightFoot  1.19022 0.307496 -2.72336
RightToes  -3.13006e-008 1.75238e-005 3.56266e-009
Spine  11.006 -0.120281 -5.13328
Spine1  17.3938 0.193233 -1.98407
HEad  -21.2553 -8.5253 10.0432
LeftShoulder1  3.14288 -7.09562 -23.4037
LeftArm  -32.2005 -29.4099 -56.6926
LeftForeArm  158.267 -80.0875 -121.698
LeftHand  -0.336571 -6.05773 3.75923
RightShoulder  3.52629 8.0295 24.4603
RightArm  -35.5849 17.4131 42.7879
RightForeArm  147.194 79.8481 119.808
RightHand  -0.532051 6.33776 -5.50109
LeftUpLeg  -9.00861 0.774617 5.029
LeftLeg  -0.0927107 4.75403 -0.0612903
LeftFoot  6.43372 0.705049 -4.75799
LeftToes  4.78685e-008 1.46778e-008 1.34523e-009
142
root  -1.7054 40.91 -2.51079 7.18483 -79.996 -0.452107
RightUpLeg  -7.47393 -1.02067 1.76956
RightLeg  0.564063 -28.4528 3.45094
RightFoot  1.28705 0.325589 -2.861
RightToes  -3.13006e-008 1.75238e-005 3.56266e-009
Spine  11.2674 0.160579 -5.44948
Spine1  18.9055 0.473209 -1.95482
HEad  -22.9777 -9.21939 10.7551
LeftShoulder1  3.4355 -7.46114 -25.1804
LeftArm  -29.869 -22.3976 -56.2732
LeftForeArm  160.186 -80.5921 -118.716
LeftHand  -0.224886 -7.32154 2.39905
RightShoulder  3.96497 8.75821 26.2956
RightArm  -29.6139 11.8779 42.954
RightForeArm  149.715 80.012 119.479
RightHand  -0.211311 5.31394 -2.64164
LeftUpLeg  -9.74812 0.98928 5.66509
LeftLeg  0.281324 4.67865 0.245477
LeftFoot  5.90886 0.667728 -4.63837
LeftToes  4.78685e-008 1.46778e-008 1.34523e-009
143
root  -1.6397 40.8685 -2.64137 9.20387 -79.6519 -2.10575
RightUpLeg  -7.97902 -0.746478 2.19212
RightLeg  0.463418 -28.9041 3.61227
RightFoot  1.27478 0.342901 -3.02051
RightToes  -3.13006e-008 1.75238e-005 3.56266e-009
Spine  11.7405 0.564822 -6.0382
Spine1  19.9147 0.753695 -1.67317
HEad  -24.3467 -10.284 11.4669
LeftShoulder1  3.5681 -7.73078 -25.6243
LeftArm  -28.7039 -18.4588 -57.285
LeftForeArm  164.597 -80.5656 -120.276
LeftHand  -0.250126 -7.43906 2.62191
RightShoulder  4.27796 9.25656 27.5342
RightArm  -28.0843 8.68572 44.6702
RightForeArm  156.26 79.5828 124.243
RightHand  -0.260845 5.46437 -3.12596
LeftUpLeg  -10.341 1.19383 6.09232
LeftLeg  0.254119 4.26009 0.269038
LeftFoot  5.75375 0.632677 -4.44183
LeftToes  4.78685e-008 1.46778e-008 1.34523e-009
144
root  -1.56184 40.8292 -2.71047 11.0776 -79.3064 -3.3585
RightUpLeg  -8.7159 -0.547449 2.45534
RightLeg  0.262826 -29.2471 3.83275
RightFoot  1.34319 0.359931 -3.15318
RightToes  -3.13006e-008 1.75238e-005 3.56266e-009
Spine  12.0063 0.808987 -6.24747
Spine1  20.3011 0.929049 -1.53325
HEad  -25.0126 -10.7805 11.5366
LeftShoulder1  3.65856 -7.98135 -25.7246
LeftArm  -28.5157 -16.5397 -57.9414
LeftForeArm  167.779 -79.9059 -125.587
LeftHand  -0.308899 -7.61534 3.12337
RightShoulder  4.31993 9.24036 27.9124
RightArm  -28.2781 7.25883 47.3764
RightForeArm  160.55 78.7145 129.996
RightHand  -0.438149 4.97046 -5.16162
LeftUpLeg  -11.1165 1.23859 6.38714
LeftLeg  0.026904 3.95577 0.301605
LeftFoot  5.65969 0.61299 -4.33155
LeftToes  4.78685e-008 1.46778e-008 1.34523e-009
